<svg width="242" height="83" viewBox="0 0 242 83" fill="none" xmlns="http://www.w3.org/2000/svg">
<g clip-path="url(#clip0_48_96)">
<path d="M36.1045 59.486C35.1721 59.486 34.3087 58.9608 33.8849 58.1141L27.1452 44.6478L23.3937 50.4212C22.9356 51.1259 22.1521 51.5513 21.3115 51.5513H2.48319C1.11175 51.5511 0 50.4394 0 49.0679C0 47.6965 1.11175 46.5847 2.48319 46.5847H19.9639L25.3434 38.3063C25.8286 37.5599 26.6779 37.1323 27.5648 37.18C28.4538 37.2299 29.2476 37.7519 29.6461 38.5478L35.3818 50.0085L41.2061 27.9222C41.475 26.9027 42.3585 26.164 43.4096 26.0802C44.4593 25.996 45.4503 26.5855 45.8774 27.5494L50.1301 37.1472L53.7093 31.5992C54.1635 30.8955 54.9416 30.4678 55.7792 30.4621C56.6287 30.4537 57.4007 30.8736 57.8643 31.5711L61.587 37.1757H80.517C81.8884 37.1757 83.0002 38.2875 83.0002 39.6589C83.0002 41.0304 81.8884 42.1421 80.517 42.1421H60.2552C59.4235 42.1421 58.647 41.7257 58.1867 41.033L55.8261 37.4789L51.8097 43.7049C51.3151 44.4716 50.4387 44.9058 49.5296 44.8344C48.6198 44.7634 47.8224 44.199 47.4527 43.3647L44.2035 36.0316L38.5065 57.6359C38.2431 58.6348 37.3886 59.3664 36.3611 59.4726C36.2751 59.4815 36.1896 59.486 36.1045 59.486Z" fill="#2D527C"/>
<path d="M40.1829 77.5056C39.822 77.5056 39.461 77.4272 39.1266 77.2698C27.2816 71.7021 15.3913 61.4224 8.09559 50.4423C7.58899 49.6802 7.54279 48.7011 7.97546 47.8946C8.40781 47.0881 9.24883 46.5849 10.1638 46.5849H19.9639L25.3434 38.3063C25.8284 37.5599 26.677 37.13 27.5648 37.18C28.4538 37.2299 29.2476 37.7519 29.6461 38.5478L35.3818 50.0085L41.2061 27.9222C41.475 26.9027 42.3585 26.164 43.4097 26.0802C44.4593 25.996 45.4503 26.5855 45.8774 27.5494L50.1301 37.1472L53.7093 31.5992C54.1635 30.8955 54.9416 30.4678 55.7793 30.4621C55.7848 30.4621 55.7904 30.4621 55.7959 30.4621C56.6272 30.4621 57.4041 30.8783 57.8645 31.5713L62.3239 38.2852C63.0828 39.4278 62.7718 40.9688 61.6296 41.7276C60.4869 42.4863 58.9459 42.1754 58.1872 41.0333L55.8263 37.4792L51.81 43.7052C51.3151 44.472 50.4376 44.9061 49.5299 44.8348C48.6202 44.7638 47.8228 44.1993 47.453 43.3649L44.2038 36.0317L38.5068 57.636C38.2434 58.635 37.3889 59.3666 36.3615 59.4727C35.3322 59.5783 34.3476 59.038 33.8852 58.1143L27.1455 44.648L23.394 50.4214C22.9359 51.1261 22.1524 51.5514 21.3119 51.5514H15.0282C21.603 59.9258 31.0042 67.7092 40.183 72.265C48.7191 68.0273 57.5937 60.9215 64.1185 53.0678C64.995 52.0128 66.5602 51.8682 67.6152 52.7446C68.67 53.6209 68.8148 55.1864 67.9384 56.2413C60.7017 64.9524 50.7208 72.8132 41.2393 77.2699C40.9047 77.4272 40.5436 77.5056 40.1829 77.5056Z" fill="#2D527C"/>
<path d="M27.4255 39.6594L36.1055 57.0028L43.6071 28.5556L49.723 42.359L55.7958 32.9455L60.2554 39.6594H75.1199C75.7297 38.0352 76.2092 36.4151 76.5372 34.8118C76.8752 33.1554 77.0584 31.5081 77.0584 29.896C77.0584 17.7938 67.3814 7.97772 55.4424 7.97772C49.4881 7.97772 44.097 10.4227 40.1827 14.372C36.2686 10.4225 30.8775 7.97772 24.923 7.97772C12.9843 7.97772 3.30704 17.7938 3.30704 29.896C3.30704 31.5081 3.49022 33.1554 3.82822 34.8118C4.79212 39.5255 7.04933 44.3813 10.1635 49.0682H21.3112L27.4255 39.6594Z" fill="#CEE8FA"/>
<path d="M36.1045 59.486C35.1721 59.486 34.3087 58.9608 33.8849 58.1144L27.1452 44.6482L23.3937 50.4215C22.9356 51.1262 22.1521 51.5516 21.3115 51.5516H10.1638C9.33215 51.5516 8.55565 51.1355 8.09558 50.4426C4.63973 45.242 2.38593 40.1503 1.39576 35.3097C1.01659 33.4496 0.824326 31.6287 0.824326 29.8962C0.824326 16.4411 11.6351 5.49469 24.9233 5.49469C30.5474 5.49469 35.8834 7.43692 40.183 11.0082C44.4827 7.43692 49.8186 5.49469 55.4427 5.49469C68.731 5.49469 79.5416 16.4411 79.5416 29.8962C79.5416 31.6295 79.3493 33.4503 78.9705 35.3084C78.6245 36.9998 78.1113 38.7573 77.4448 40.5324C77.0814 41.501 76.1548 42.1426 75.1202 42.1426H60.2556C59.4238 42.1426 58.6473 41.7261 58.1871 41.0334L55.8263 37.4794L51.8098 43.7053C51.3152 44.4721 50.4389 44.9062 49.5298 44.8349C48.62 44.7639 47.8226 44.1994 47.4528 43.3651L44.2037 36.0319L38.5066 57.6362C38.2432 58.6351 37.3887 59.3667 36.3613 59.4729C36.2751 59.4815 36.1895 59.486 36.1045 59.486ZM27.4252 37.1762C27.4715 37.1762 27.5181 37.1775 27.5648 37.1803C28.4538 37.2302 29.2476 37.7522 29.6461 38.5481L35.3818 50.0088L41.2061 27.9225C41.475 26.903 42.3585 26.1643 43.4096 26.0805C44.4593 25.9963 45.4503 26.5858 45.8774 27.5497L50.1301 37.1475L53.7093 31.5995C54.1635 30.8958 54.9416 30.4681 55.7792 30.4625C56.6287 30.454 57.401 30.8739 57.8643 31.5714L61.587 37.1761H73.3535C73.6631 36.2006 73.9144 35.2429 74.1044 34.314C74.4168 32.7829 74.5752 31.2962 74.5752 29.8957C74.5752 19.179 65.9925 10.4604 55.4427 10.4604C50.3565 10.4604 45.5633 12.4703 41.9469 16.1195C41.4805 16.5901 40.8457 16.8548 40.1832 16.8548C39.5206 16.8548 38.8858 16.5901 38.4194 16.1195C34.8029 12.4703 30.0098 10.4604 24.9237 10.4604C14.3738 10.4604 5.79087 19.179 5.79087 29.8957C5.79087 31.2957 5.94925 32.7826 6.26196 34.3155C7.05451 38.1913 8.82005 42.3144 11.514 46.5849H19.9641L25.3435 38.3063C25.8029 37.5992 26.5879 37.1762 27.4252 37.1762Z" fill="#2D527C"/>
</g>
<path d="M95.93 41C95.49 41 95.12 40.85 94.82 40.55C94.52 40.25 94.37 39.88 94.37 39.44V17.57H97.49V39.44C97.49 39.88 97.34 40.25 97.04 40.55C96.74 40.85 96.37 41 95.93 41ZM87.89 20.45C87.47 20.45 87.12 20.32 86.84 20.06C86.58 19.78 86.45 19.43 86.45 19.01C86.45 18.59 86.58 18.25 86.84 17.99C87.12 17.71 87.47 17.57 87.89 17.57H103.94C104.36 17.57 104.7 17.71 104.96 17.99C105.24 18.25 105.38 18.59 105.38 19.01C105.38 19.43 105.24 19.78 104.96 20.06C104.7 20.32 104.36 20.45 103.94 20.45H87.89ZM105.502 41C104.942 41 104.512 40.76 104.212 40.28C103.912 39.8 103.882 39.29 104.122 38.75L112.552 18.62C112.852 17.92 113.342 17.57 114.022 17.57C114.742 17.57 115.232 17.92 115.492 18.62L123.952 38.81C124.172 39.37 124.132 39.88 123.832 40.34C123.552 40.78 123.122 41 122.542 41C122.242 41 121.952 40.92 121.672 40.76C121.412 40.58 121.222 40.34 121.102 40.04L113.662 21.56H114.502L106.942 40.04C106.802 40.36 106.592 40.6 106.312 40.76C106.052 40.92 105.782 41 105.502 41ZM107.092 35.84L108.292 33.26H120.052L121.252 35.84H107.092ZM110.662 15.53C110.222 15.53 109.852 15.42 109.552 15.2C109.272 14.96 109.132 14.66 109.132 14.3C109.132 13.78 109.372 13.34 109.852 12.98L113.212 10.79C113.472 10.63 113.732 10.55 113.992 10.55C114.152 10.55 114.292 10.57 114.412 10.61C114.532 10.63 114.662 10.69 114.802 10.79L118.132 12.98C118.612 13.34 118.852 13.78 118.852 14.3C118.852 14.66 118.712 14.96 118.432 15.2C118.152 15.42 117.792 15.53 117.352 15.53C117.152 15.53 116.972 15.51 116.812 15.47C116.672 15.41 116.522 15.32 116.362 15.2L113.992 13.52L111.622 15.2C111.342 15.42 111.022 15.53 110.662 15.53ZM129.085 41C128.645 41 128.275 40.85 127.975 40.55C127.675 40.25 127.525 39.88 127.525 39.44V19.13C127.525 18.67 127.675 18.3 127.975 18.02C128.275 17.72 128.645 17.57 129.085 17.57C129.685 17.57 130.145 17.85 130.465 18.41L139.855 37.22H138.895L148.045 18.41C148.365 17.85 148.825 17.57 149.425 17.57C149.865 17.57 150.235 17.72 150.535 18.02C150.835 18.3 150.985 18.67 150.985 19.13V39.44C150.985 39.88 150.825 40.25 150.505 40.55C150.205 40.85 149.845 41 149.425 41C148.985 41 148.615 40.85 148.315 40.55C148.015 40.25 147.865 39.88 147.865 39.44V23.45L148.465 23.3L140.605 39.32C140.265 39.84 139.815 40.1 139.255 40.1C138.595 40.1 138.115 39.79 137.815 39.17L130.045 23.6L130.645 23.45V39.44C130.645 39.88 130.495 40.25 130.195 40.55C129.895 40.85 129.525 41 129.085 41ZM164.287 30.62C163.847 30.62 163.477 30.5 163.177 30.26C162.897 30.02 162.757 29.69 162.757 29.27C162.757 28.85 162.897 28.52 163.177 28.28C163.477 28.04 163.847 27.92 164.287 27.92H172.747C173.207 27.92 173.577 28.04 173.857 28.28C174.157 28.52 174.307 28.85 174.307 29.27C174.307 29.69 174.157 30.02 173.857 30.26C173.577 30.5 173.207 30.62 172.747 30.62H164.287ZM167.347 41C166.907 41 166.537 40.85 166.237 40.55C165.937 40.25 165.787 39.88 165.787 39.44V19.13C165.787 18.67 165.937 18.3 166.237 18.02C166.537 17.72 166.907 17.57 167.347 17.57H172.777C174.497 17.57 176.057 17.86 177.457 18.44C178.877 19 180.107 19.81 181.147 20.87C182.187 21.91 182.987 23.14 183.547 24.56C184.107 25.98 184.387 27.55 184.387 29.27C184.387 30.99 184.107 32.57 183.547 34.01C182.987 35.43 182.187 36.67 181.147 37.73C180.107 38.77 178.877 39.58 177.457 40.16C176.057 40.72 174.497 41 172.777 41H167.347ZM168.907 38.24H172.777C174.457 38.24 175.937 37.86 177.217 37.1C178.517 36.32 179.537 35.26 180.277 33.92C181.017 32.56 181.387 31.01 181.387 29.27C181.387 27.51 181.017 25.96 180.277 24.62C179.537 23.28 178.517 22.23 177.217 21.47C175.937 20.71 174.457 20.33 172.777 20.33H168.907V38.24ZM199.093 41.48C197.173 41.48 195.473 41.13 193.993 40.43C192.513 39.71 191.353 38.72 190.513 37.46C189.693 36.2 189.283 34.76 189.283 33.14V19.13C189.283 18.67 189.433 18.3 189.733 18.02C190.033 17.72 190.403 17.57 190.843 17.57C191.303 17.57 191.673 17.72 191.953 18.02C192.253 18.3 192.403 18.67 192.403 19.13V33.14C192.403 34.22 192.683 35.18 193.243 36.02C193.823 36.84 194.613 37.49 195.613 37.97C196.633 38.43 197.793 38.66 199.093 38.66C200.353 38.66 201.463 38.43 202.423 37.97C203.403 37.49 204.163 36.84 204.703 36.02C205.263 35.18 205.543 34.22 205.543 33.14V19.13C205.543 18.67 205.693 18.3 205.993 18.02C206.293 17.72 206.663 17.57 207.103 17.57C207.563 17.57 207.933 17.72 208.213 18.02C208.493 18.3 208.633 18.67 208.633 19.13V33.14C208.633 34.76 208.223 36.2 207.403 37.46C206.603 38.72 205.483 39.71 204.043 40.43C202.603 41.13 200.953 41.48 199.093 41.48ZM207.103 20.27V17.57H208.543C208.903 17.57 209.213 17.39 209.473 17.03C209.733 16.65 209.863 16.16 209.863 15.56V14.99C209.863 14.53 209.983 14.17 210.223 13.91C210.483 13.63 210.813 13.49 211.213 13.49C211.653 13.49 211.983 13.66 212.203 14C212.443 14.32 212.563 14.72 212.563 15.2V15.56C212.563 16.44 212.383 17.24 212.023 17.96C211.683 18.68 211.213 19.25 210.613 19.67C210.013 20.07 209.323 20.27 208.543 20.27H207.103ZM199.093 14.99C198.653 14.99 198.283 14.85 197.983 14.57C197.703 14.27 197.563 13.9 197.563 13.46C197.563 13.04 197.683 12.7 197.923 12.44L200.863 9.5C201.163 9.2 201.523 9.05 201.943 9.05C202.403 9.05 202.773 9.2 203.053 9.5C203.333 9.8 203.473 10.17 203.473 10.61C203.473 10.81 203.443 11 203.383 11.18C203.323 11.36 203.213 11.52 203.053 11.66L200.143 14.57C199.863 14.85 199.513 14.99 199.093 14.99ZM225.125 41.3C223.505 41.3 221.985 41 220.565 40.4C219.165 39.78 217.935 38.93 216.875 37.85C215.835 36.75 215.015 35.47 214.415 34.01C213.835 32.55 213.545 30.97 213.545 29.27C213.545 27.59 213.835 26.03 214.415 24.59C215.015 23.13 215.835 21.86 216.875 20.78C217.935 19.68 219.165 18.82 220.565 18.2C221.965 17.58 223.485 17.27 225.125 17.27C226.665 17.27 227.985 17.47 229.085 17.87C230.205 18.27 231.325 18.93 232.445 19.85C232.605 19.97 232.725 20.1 232.805 20.24C232.905 20.36 232.965 20.49 232.985 20.63C233.025 20.75 233.045 20.9 233.045 21.08C233.045 21.46 232.905 21.78 232.625 22.04C232.365 22.28 232.045 22.42 231.665 22.46C231.285 22.48 230.915 22.35 230.555 22.07C229.815 21.43 229.045 20.94 228.245 20.6C227.465 20.26 226.425 20.09 225.125 20.09C223.945 20.09 222.835 20.33 221.795 20.81C220.755 21.29 219.835 21.95 219.035 22.79C218.255 23.63 217.645 24.61 217.205 25.73C216.765 26.83 216.545 28.01 216.545 29.27C216.545 30.55 216.765 31.75 217.205 32.87C217.645 33.97 218.255 34.94 219.035 35.78C219.835 36.62 220.755 37.28 221.795 37.76C222.835 38.22 223.945 38.45 225.125 38.45C226.145 38.45 227.105 38.28 228.005 37.94C228.925 37.58 229.805 37.09 230.645 36.47C231.005 36.21 231.355 36.1 231.695 36.14C232.055 36.16 232.355 36.3 232.595 36.56C232.835 36.8 232.955 37.14 232.955 37.58C232.955 37.78 232.915 37.98 232.835 38.18C232.755 38.36 232.635 38.53 232.475 38.69C231.395 39.55 230.235 40.2 228.995 40.64C227.775 41.08 226.485 41.3 225.125 41.3Z" fill="#2D527C"/>
<path d="M86 47.75H232.03" stroke="#2D527C" stroke-linecap="round"/>
<path d="M88.52 70C88.2 70 87.965 69.835 87.815 69.505L83.42 59.455C83.28 59.115 83.265 58.835 83.375 58.615C83.485 58.395 83.695 58.285 84.005 58.285C84.355 58.285 84.595 58.44 84.725 58.75L88.58 68.005H88.415L92.345 58.75C92.425 58.57 92.515 58.45 92.615 58.39C92.725 58.32 92.87 58.285 93.05 58.285C93.35 58.285 93.555 58.395 93.665 58.615C93.785 58.825 93.785 59.06 93.665 59.32L89.225 69.505C89.155 69.665 89.06 69.79 88.94 69.88C88.83 69.96 88.69 70 88.52 70ZM96.3246 70C96.1046 70 95.9196 69.93 95.7696 69.79C95.6296 69.64 95.5596 69.455 95.5596 69.235V62.56C95.5596 62.33 95.6296 62.145 95.7696 62.005C95.9196 61.865 96.1046 61.795 96.3246 61.795C96.5546 61.795 96.7396 61.865 96.8796 62.005C97.0196 62.145 97.0896 62.33 97.0896 62.56V69.235C97.0896 69.455 97.0196 69.64 96.8796 69.79C96.7396 69.93 96.5546 70 96.3246 70ZM96.2796 60.505C96.0596 60.505 95.8846 60.435 95.7546 60.295L94.2846 58.84C94.1546 58.71 94.0896 58.535 94.0896 58.315C94.0896 58.095 94.1596 57.91 94.2996 57.76C94.4396 57.61 94.6196 57.535 94.8396 57.535C95.0496 57.535 95.2346 57.61 95.3946 57.76L96.8496 59.23C96.9796 59.36 97.0446 59.53 97.0446 59.74C97.0446 59.96 96.9696 60.145 96.8196 60.295C96.6796 60.435 96.4996 60.505 96.2796 60.505ZM107.315 70.06C106.615 70.06 105.965 69.955 105.365 69.745C104.775 69.525 104.315 69.25 103.985 68.92C103.835 68.76 103.77 68.58 103.79 68.38C103.82 68.17 103.92 68 104.09 67.87C104.29 67.71 104.485 67.645 104.675 67.675C104.875 67.695 105.045 67.78 105.185 67.93C105.355 68.12 105.625 68.3 105.995 68.47C106.375 68.63 106.795 68.71 107.255 68.71C107.835 68.71 108.275 68.615 108.575 68.425C108.885 68.235 109.045 67.99 109.055 67.69C109.065 67.39 108.92 67.13 108.62 66.91C108.33 66.69 107.795 66.51 107.015 66.37C106.005 66.17 105.27 65.87 104.81 65.47C104.36 65.07 104.135 64.58 104.135 64C104.135 63.49 104.285 63.07 104.585 62.74C104.885 62.4 105.27 62.15 105.74 61.99C106.21 61.82 106.7 61.735 107.21 61.735C107.87 61.735 108.455 61.84 108.965 62.05C109.475 62.26 109.88 62.55 110.18 62.92C110.32 63.08 110.385 63.25 110.375 63.43C110.365 63.6 110.28 63.745 110.12 63.865C109.96 63.975 109.77 64.01 109.55 63.97C109.33 63.93 109.145 63.84 108.995 63.7C108.745 63.46 108.475 63.295 108.185 63.205C107.895 63.115 107.56 63.07 107.18 63.07C106.74 63.07 106.365 63.145 106.055 63.295C105.755 63.445 105.605 63.665 105.605 63.955C105.605 64.135 105.65 64.3 105.74 64.45C105.84 64.59 106.03 64.72 106.31 64.84C106.59 64.95 107 65.06 107.54 65.17C108.29 65.32 108.88 65.51 109.31 65.74C109.75 65.97 110.065 66.24 110.255 66.55C110.445 66.85 110.54 67.2 110.54 67.6C110.54 68.06 110.415 68.475 110.165 68.845C109.925 69.215 109.565 69.51 109.085 69.73C108.615 69.95 108.025 70.06 107.315 70.06ZM115.925 70.075C115.235 70.075 114.615 69.93 114.065 69.64C113.525 69.34 113.095 68.905 112.775 68.335C112.465 67.765 112.31 67.065 112.31 66.235V62.545C112.31 62.325 112.38 62.145 112.52 62.005C112.67 61.855 112.855 61.78 113.075 61.78C113.295 61.78 113.475 61.855 113.615 62.005C113.765 62.145 113.84 62.325 113.84 62.545V66.235C113.84 66.795 113.945 67.26 114.155 67.63C114.365 67.99 114.65 68.26 115.01 68.44C115.37 68.61 115.775 68.695 116.225 68.695C116.655 68.695 117.035 68.61 117.365 68.44C117.705 68.27 117.975 68.04 118.175 67.75C118.375 67.46 118.475 67.135 118.475 66.775H119.42C119.42 67.395 119.265 67.955 118.955 68.455C118.655 68.955 118.24 69.35 117.71 69.64C117.19 69.93 116.595 70.075 115.925 70.075ZM119.24 70C119.02 70 118.835 69.93 118.685 69.79C118.545 69.64 118.475 69.455 118.475 69.235V62.545C118.475 62.315 118.545 62.13 118.685 61.99C118.835 61.85 119.02 61.78 119.24 61.78C119.47 61.78 119.655 61.85 119.795 61.99C119.935 62.13 120.005 62.315 120.005 62.545V69.235C120.005 69.455 119.935 69.64 119.795 69.79C119.655 69.93 119.47 70 119.24 70ZM119.195 63.145V61.795H119.915C120.095 61.795 120.25 61.705 120.38 61.525C120.51 61.335 120.575 61.09 120.575 60.79V60.505C120.575 60.275 120.635 60.095 120.755 59.965C120.885 59.825 121.05 59.755 121.25 59.755C121.47 59.755 121.635 59.84 121.745 60.01C121.865 60.17 121.925 60.37 121.925 60.61V60.79C121.925 61.23 121.835 61.63 121.655 61.99C121.485 62.35 121.25 62.635 120.95 62.845C120.65 63.045 120.305 63.145 119.915 63.145H119.195ZM116.3 60.505C116.08 60.505 115.895 60.435 115.745 60.295C115.605 60.145 115.535 59.96 115.535 59.74C115.535 59.53 115.595 59.36 115.715 59.23L117.185 57.76C117.335 57.61 117.515 57.535 117.725 57.535C117.955 57.535 118.14 57.61 118.28 57.76C118.42 57.91 118.49 58.095 118.49 58.315C118.49 58.415 118.475 58.51 118.445 58.6C118.415 58.69 118.36 58.77 118.28 58.84L116.825 60.295C116.685 60.435 116.51 60.505 116.3 60.505ZM126.42 70.06C125.62 70.06 124.905 69.88 124.275 69.52C123.655 69.15 123.165 68.655 122.805 68.035C122.455 67.405 122.28 66.695 122.28 65.905C122.28 65.095 122.455 64.375 122.805 63.745C123.155 63.115 123.635 62.625 124.245 62.275C124.855 61.915 125.555 61.735 126.345 61.735C126.935 61.735 127.475 61.85 127.965 62.08C128.455 62.3 128.895 62.635 129.285 63.085C129.425 63.245 129.475 63.41 129.435 63.58C129.395 63.75 129.285 63.9 129.105 64.03C128.965 64.13 128.81 64.165 128.64 64.135C128.47 64.095 128.315 64.005 128.175 63.865C127.685 63.345 127.075 63.085 126.345 63.085C125.835 63.085 125.385 63.205 124.995 63.445C124.605 63.675 124.3 64 124.08 64.42C123.86 64.84 123.75 65.335 123.75 65.905C123.75 66.445 123.86 66.925 124.08 67.345C124.31 67.765 124.625 68.1 125.025 68.35C125.425 68.59 125.89 68.71 126.42 68.71C126.77 68.71 127.075 68.67 127.335 68.59C127.605 68.5 127.85 68.365 128.07 68.185C128.23 68.055 128.395 67.985 128.565 67.975C128.735 67.955 128.885 68 129.015 68.11C129.185 68.25 129.28 68.41 129.3 68.59C129.32 68.76 129.26 68.915 129.12 69.055C128.4 69.725 127.5 70.06 126.42 70.06ZM137.543 67L136.613 65.98L141.218 61.87C141.368 61.73 141.533 61.665 141.713 61.675C141.903 61.685 142.063 61.765 142.193 61.915C142.333 62.065 142.398 62.23 142.388 62.41C142.378 62.59 142.298 62.75 142.148 62.89L137.543 67ZM136.838 70C136.618 70 136.438 69.935 136.298 69.805C136.168 69.665 136.103 69.485 136.103 69.265V59.02C136.103 58.8 136.168 58.625 136.298 58.495C136.438 58.355 136.618 58.285 136.838 58.285C137.058 58.285 137.233 58.355 137.363 58.495C137.503 58.625 137.573 58.8 137.573 59.02V69.265C137.573 69.485 137.503 69.665 137.363 69.805C137.233 69.935 137.058 70 136.838 70ZM142.193 69.925C142.033 70.055 141.853 70.11 141.653 70.09C141.463 70.08 141.303 69.995 141.173 69.835L138.128 66.07L139.178 65.08L142.298 68.92C142.428 69.08 142.483 69.255 142.463 69.445C142.453 69.625 142.363 69.785 142.193 69.925ZM145.408 67.015C145.188 67.015 145.003 66.945 144.853 66.805C144.713 66.655 144.643 66.47 144.643 66.25V59.05C144.643 58.82 144.713 58.635 144.853 58.495C145.003 58.355 145.188 58.285 145.408 58.285C145.638 58.285 145.823 58.355 145.963 58.495C146.103 58.635 146.173 58.82 146.173 59.05V66.25C146.173 66.47 146.103 66.655 145.963 66.805C145.823 66.945 145.638 67.015 145.408 67.015ZM151.573 70.015C151.353 70.015 151.168 69.945 151.018 69.805C150.878 69.655 150.808 69.47 150.808 69.25V65.56C150.808 64.99 150.703 64.525 150.493 64.165C150.283 63.805 149.998 63.54 149.638 63.37C149.288 63.19 148.883 63.1 148.423 63.1C148.003 63.1 147.623 63.185 147.283 63.355C146.943 63.525 146.673 63.755 146.473 64.045C146.273 64.325 146.173 64.65 146.173 65.02H145.228C145.228 64.39 145.378 63.83 145.678 63.34C145.988 62.84 146.408 62.445 146.938 62.155C147.468 61.865 148.063 61.72 148.723 61.72C149.413 61.72 150.028 61.87 150.568 62.17C151.118 62.46 151.548 62.89 151.858 63.46C152.178 64.03 152.338 64.73 152.338 65.56V69.25C152.338 69.47 152.263 69.655 152.113 69.805C151.973 69.945 151.793 70.015 151.573 70.015ZM145.408 70.015C145.188 70.015 145.003 69.945 144.853 69.805C144.713 69.655 144.643 69.47 144.643 69.25V62.56C144.643 62.33 144.713 62.145 144.853 62.005C145.003 61.865 145.188 61.795 145.408 61.795C145.638 61.795 145.823 61.865 145.963 62.005C146.103 62.145 146.173 62.33 146.173 62.56V69.25C146.173 69.47 146.103 69.655 145.963 69.805C145.823 69.945 145.638 70.015 145.408 70.015ZM158.602 70.06C157.792 70.06 157.077 69.885 156.457 69.535C155.837 69.175 155.347 68.685 154.987 68.065C154.637 67.435 154.462 66.715 154.462 65.905C154.462 65.085 154.637 64.365 154.987 63.745C155.347 63.115 155.837 62.625 156.457 62.275C157.077 61.915 157.792 61.735 158.602 61.735C159.402 61.735 160.112 61.915 160.732 62.275C161.352 62.625 161.837 63.115 162.187 63.745C162.547 64.365 162.727 65.085 162.727 65.905C162.727 66.715 162.552 67.435 162.202 68.065C161.852 68.685 161.367 69.175 160.747 69.535C160.127 69.885 159.412 70.06 158.602 70.06ZM158.602 68.71C159.122 68.71 159.582 68.59 159.982 68.35C160.382 68.11 160.692 67.78 160.912 67.36C161.142 66.94 161.257 66.455 161.257 65.905C161.257 65.355 161.142 64.87 160.912 64.45C160.692 64.02 160.382 63.685 159.982 63.445C159.582 63.205 159.122 63.085 158.602 63.085C158.082 63.085 157.622 63.205 157.222 63.445C156.822 63.685 156.507 64.02 156.277 64.45C156.047 64.87 155.932 65.355 155.932 65.905C155.932 66.455 156.047 66.94 156.277 67.36C156.507 67.78 156.822 68.11 157.222 68.35C157.622 68.59 158.082 68.71 158.602 68.71ZM158.602 60.985C158.412 60.985 158.252 60.92 158.122 60.79C157.992 60.66 157.927 60.5 157.927 60.31V59.98C157.927 59.58 158.127 59.335 158.527 59.245L158.917 59.155C159.087 59.115 159.232 59.045 159.352 58.945C159.472 58.845 159.532 58.715 159.532 58.555C159.532 58.355 159.472 58.21 159.352 58.12C159.232 58.03 159.077 57.985 158.887 57.985C158.747 57.985 158.612 58.01 158.482 58.06C158.362 58.11 158.262 58.165 158.182 58.225C158.122 58.275 158.042 58.315 157.942 58.345C157.852 58.375 157.767 58.39 157.687 58.39C157.537 58.39 157.407 58.35 157.297 58.27C157.187 58.18 157.132 58.045 157.132 57.865C157.132 57.645 157.212 57.47 157.372 57.34C157.572 57.18 157.792 57.06 158.032 56.98C158.272 56.89 158.547 56.845 158.857 56.845C159.397 56.845 159.837 57.005 160.177 57.325C160.517 57.645 160.687 58.04 160.687 58.51C160.697 59.01 160.532 59.375 160.192 59.605C159.862 59.835 159.462 59.98 158.992 60.04L159.277 60.01C159.277 60.35 159.212 60.6 159.082 60.76C158.952 60.91 158.792 60.985 158.602 60.985ZM168.859 70.06C168.029 70.06 167.289 69.885 166.639 69.535C165.999 69.175 165.494 68.685 165.124 68.065C164.764 67.435 164.584 66.715 164.584 65.905C164.584 65.085 164.754 64.365 165.094 63.745C165.444 63.115 165.924 62.625 166.534 62.275C167.144 61.915 167.844 61.735 168.634 61.735C169.414 61.735 170.084 61.91 170.644 62.26C171.204 62.6 171.629 63.075 171.919 63.685C172.219 64.285 172.369 64.98 172.369 65.77C172.369 65.96 172.304 66.12 172.174 66.25C172.044 66.37 171.879 66.43 171.679 66.43H165.634V65.23H171.634L171.019 65.65C171.009 65.15 170.909 64.705 170.719 64.315C170.529 63.915 170.259 63.6 169.909 63.37C169.559 63.14 169.134 63.025 168.634 63.025C168.064 63.025 167.574 63.15 167.164 63.4C166.764 63.65 166.459 63.995 166.249 64.435C166.039 64.865 165.934 65.355 165.934 65.905C165.934 66.455 166.059 66.945 166.309 67.375C166.559 67.805 166.904 68.145 167.344 68.395C167.784 68.645 168.289 68.77 168.859 68.77C169.169 68.77 169.484 68.715 169.804 68.605C170.134 68.485 170.399 68.35 170.599 68.2C170.749 68.09 170.909 68.035 171.079 68.035C171.259 68.025 171.414 68.075 171.544 68.185C171.714 68.335 171.804 68.5 171.814 68.68C171.824 68.86 171.744 69.015 171.574 69.145C171.234 69.415 170.809 69.635 170.299 69.805C169.799 69.975 169.319 70.06 168.859 70.06ZM189.485 70.015C189.265 70.015 189.08 69.945 188.93 69.805C188.79 69.655 188.72 69.47 188.72 69.25V64.96C188.72 64.33 188.565 63.865 188.255 63.565C187.945 63.255 187.54 63.1 187.04 63.1C186.52 63.1 186.09 63.28 185.75 63.64C185.42 64 185.255 64.46 185.255 65.02H184.01C184.01 64.37 184.15 63.8 184.43 63.31C184.71 62.81 185.1 62.42 185.6 62.14C186.11 61.86 186.69 61.72 187.34 61.72C187.91 61.72 188.415 61.845 188.855 62.095C189.295 62.345 189.635 62.715 189.875 63.205C190.125 63.685 190.25 64.27 190.25 64.96V69.25C190.25 69.47 190.18 69.655 190.04 69.805C189.9 69.945 189.715 70.015 189.485 70.015ZM179.48 70.015C179.26 70.015 179.075 69.945 178.925 69.805C178.785 69.655 178.715 69.47 178.715 69.25V62.575C178.715 62.345 178.785 62.16 178.925 62.02C179.075 61.88 179.26 61.81 179.48 61.81C179.71 61.81 179.895 61.88 180.035 62.02C180.175 62.16 180.245 62.345 180.245 62.575V69.25C180.245 69.47 180.175 69.655 180.035 69.805C179.895 69.945 179.71 70.015 179.48 70.015ZM184.49 70.015C184.27 70.015 184.085 69.945 183.935 69.805C183.795 69.655 183.725 69.47 183.725 69.25V64.96C183.725 64.33 183.57 63.865 183.26 63.565C182.95 63.255 182.545 63.1 182.045 63.1C181.525 63.1 181.095 63.28 180.755 63.64C180.415 64 180.245 64.46 180.245 65.02H179.3C179.3 64.37 179.43 63.8 179.69 63.31C179.95 62.81 180.31 62.42 180.77 62.14C181.23 61.86 181.755 61.72 182.345 61.72C182.915 61.72 183.42 61.845 183.86 62.095C184.3 62.345 184.64 62.715 184.88 63.205C185.13 63.685 185.255 64.27 185.255 64.96V69.25C185.255 69.47 185.185 69.655 185.045 69.805C184.905 69.945 184.72 70.015 184.49 70.015ZM196.512 70.06C195.702 70.06 194.987 69.885 194.367 69.535C193.747 69.175 193.257 68.685 192.897 68.065C192.547 67.435 192.372 66.715 192.372 65.905C192.372 65.085 192.547 64.365 192.897 63.745C193.257 63.115 193.747 62.625 194.367 62.275C194.987 61.915 195.702 61.735 196.512 61.735C197.312 61.735 198.022 61.915 198.642 62.275C199.262 62.625 199.747 63.115 200.097 63.745C200.457 64.365 200.637 65.085 200.637 65.905C200.637 66.715 200.462 67.435 200.112 68.065C199.762 68.685 199.277 69.175 198.657 69.535C198.037 69.885 197.322 70.06 196.512 70.06ZM196.512 68.71C197.032 68.71 197.492 68.59 197.892 68.35C198.292 68.11 198.602 67.78 198.822 67.36C199.052 66.94 199.167 66.455 199.167 65.905C199.167 65.355 199.052 64.87 198.822 64.45C198.602 64.02 198.292 63.685 197.892 63.445C197.492 63.205 197.032 63.085 196.512 63.085C195.992 63.085 195.532 63.205 195.132 63.445C194.732 63.685 194.417 64.02 194.187 64.45C193.957 64.87 193.842 65.355 193.842 65.905C193.842 66.455 193.957 66.94 194.187 67.36C194.417 67.78 194.732 68.11 195.132 68.35C195.532 68.59 195.992 68.71 196.512 68.71ZM196.512 73.36C196.242 73.36 196.007 73.26 195.807 73.06C195.617 72.87 195.522 72.64 195.522 72.37C195.522 72.1 195.617 71.865 195.807 71.665C196.007 71.475 196.242 71.38 196.512 71.38C196.782 71.38 197.012 71.475 197.202 71.665C197.402 71.865 197.502 72.1 197.502 72.37C197.502 72.64 197.402 72.87 197.202 73.06C197.012 73.26 196.782 73.36 196.512 73.36ZM203.829 70C203.609 70 203.424 69.93 203.274 69.79C203.134 69.64 203.064 69.455 203.064 69.235V62.56C203.064 62.33 203.134 62.145 203.274 62.005C203.424 61.865 203.609 61.795 203.829 61.795C204.059 61.795 204.244 61.865 204.384 62.005C204.524 62.145 204.594 62.33 204.594 62.56V69.235C204.594 69.455 204.524 69.64 204.384 69.79C204.244 69.93 204.059 70 203.829 70ZM203.829 60.46C203.559 60.46 203.324 60.365 203.124 60.175C202.934 59.975 202.839 59.74 202.839 59.47C202.839 59.2 202.934 58.97 203.124 58.78C203.324 58.58 203.559 58.48 203.829 58.48C204.099 58.48 204.329 58.58 204.519 58.78C204.719 58.97 204.819 59.2 204.819 59.47C204.819 59.74 204.719 59.975 204.519 60.175C204.329 60.365 204.099 60.46 203.829 60.46ZM218.765 70.015C218.545 70.015 218.36 69.945 218.21 69.805C218.07 69.655 218 69.47 218 69.25V65.56C218 64.99 217.895 64.525 217.685 64.165C217.475 63.805 217.19 63.54 216.83 63.37C216.48 63.19 216.075 63.1 215.615 63.1C215.195 63.1 214.815 63.185 214.475 63.355C214.135 63.525 213.865 63.755 213.665 64.045C213.465 64.325 213.365 64.65 213.365 65.02H212.42C212.42 64.39 212.57 63.83 212.87 63.34C213.18 62.84 213.6 62.445 214.13 62.155C214.66 61.865 215.255 61.72 215.915 61.72C216.605 61.72 217.22 61.87 217.76 62.17C218.31 62.46 218.74 62.89 219.05 63.46C219.37 64.03 219.53 64.73 219.53 65.56V69.25C219.53 69.47 219.455 69.655 219.305 69.805C219.165 69.945 218.985 70.015 218.765 70.015ZM212.6 70.015C212.38 70.015 212.195 69.945 212.045 69.805C211.905 69.655 211.835 69.47 211.835 69.25V62.56C211.835 62.33 211.905 62.145 212.045 62.005C212.195 61.865 212.38 61.795 212.6 61.795C212.83 61.795 213.015 61.865 213.155 62.005C213.295 62.145 213.365 62.33 213.365 62.56V69.25C213.365 69.47 213.295 69.655 213.155 69.805C213.015 69.945 212.83 70.015 212.6 70.015ZM222.825 67.015C222.605 67.015 222.42 66.945 222.27 66.805C222.13 66.655 222.06 66.47 222.06 66.25V59.05C222.06 58.82 222.13 58.635 222.27 58.495C222.42 58.355 222.605 58.285 222.825 58.285C223.055 58.285 223.24 58.355 223.38 58.495C223.52 58.635 223.59 58.82 223.59 59.05V66.25C223.59 66.47 223.52 66.655 223.38 66.805C223.24 66.945 223.055 67.015 222.825 67.015ZM228.99 70.015C228.77 70.015 228.585 69.945 228.435 69.805C228.295 69.655 228.225 69.47 228.225 69.25V65.56C228.225 64.99 228.12 64.525 227.91 64.165C227.7 63.805 227.415 63.54 227.055 63.37C226.705 63.19 226.3 63.1 225.84 63.1C225.42 63.1 225.04 63.185 224.7 63.355C224.36 63.525 224.09 63.755 223.89 64.045C223.69 64.325 223.59 64.65 223.59 65.02H222.645C222.645 64.39 222.795 63.83 223.095 63.34C223.405 62.84 223.825 62.445 224.355 62.155C224.885 61.865 225.48 61.72 226.14 61.72C226.83 61.72 227.445 61.87 227.985 62.17C228.535 62.46 228.965 62.89 229.275 63.46C229.595 64.03 229.755 64.73 229.755 65.56V69.25C229.755 69.47 229.68 69.655 229.53 69.805C229.39 69.945 229.21 70.015 228.99 70.015ZM222.825 70.015C222.605 70.015 222.42 69.945 222.27 69.805C222.13 69.655 222.06 69.47 222.06 69.25V62.56C222.06 62.33 222.13 62.145 222.27 62.005C222.42 61.865 222.605 61.795 222.825 61.795C223.055 61.795 223.24 61.865 223.38 62.005C223.52 62.145 223.59 62.33 223.59 62.56V69.25C223.59 69.47 223.52 69.655 223.38 69.805C223.24 69.945 223.055 70.015 222.825 70.015ZM235.719 70.06C234.989 70.06 234.334 69.88 233.754 69.52C233.174 69.15 232.714 68.655 232.374 68.035C232.044 67.405 231.879 66.695 231.879 65.905C231.879 65.115 232.059 64.405 232.419 63.775C232.789 63.145 233.284 62.65 233.904 62.29C234.534 61.92 235.239 61.735 236.019 61.735C236.799 61.735 237.499 61.92 238.119 62.29C238.739 62.65 239.229 63.145 239.589 63.775C239.959 64.405 240.144 65.115 240.144 65.905H239.559C239.559 66.695 239.389 67.405 239.049 68.035C238.719 68.655 238.264 69.15 237.684 69.52C237.104 69.88 236.449 70.06 235.719 70.06ZM236.019 68.71C236.529 68.71 236.984 68.59 237.384 68.35C237.784 68.1 238.099 67.765 238.329 67.345C238.559 66.915 238.674 66.435 238.674 65.905C238.674 65.365 238.559 64.885 238.329 64.465C238.099 64.035 237.784 63.7 237.384 63.46C236.984 63.21 236.529 63.085 236.019 63.085C235.519 63.085 235.064 63.21 234.654 63.46C234.254 63.7 233.934 64.035 233.694 64.465C233.464 64.885 233.349 65.365 233.349 65.905C233.349 66.435 233.464 66.915 233.694 67.345C233.934 67.765 234.254 68.1 234.654 68.35C235.064 68.59 235.519 68.71 236.019 68.71ZM239.379 70.015C239.159 70.015 238.974 69.945 238.824 69.805C238.684 69.655 238.614 69.47 238.614 69.25V66.955L238.899 65.365L240.144 65.905V69.25C240.144 69.47 240.069 69.655 239.919 69.805C239.779 69.945 239.599 70.015 239.379 70.015ZM235.974 60.505C235.754 60.505 235.579 60.435 235.449 60.295L233.979 58.84C233.849 58.71 233.784 58.535 233.784 58.315C233.784 58.095 233.854 57.91 233.994 57.76C234.134 57.61 234.314 57.535 234.534 57.535C234.744 57.535 234.929 57.61 235.089 57.76L236.544 59.23C236.674 59.36 236.739 59.53 236.739 59.74C236.739 59.96 236.664 60.145 236.514 60.295C236.374 60.435 236.194 60.505 235.974 60.505Z" fill="#2D527C"/>
<defs>
<clipPath id="clip0_48_96">
<rect width="83" height="83" fill="white"/>
</clipPath>
</defs>
</svg>