<svg xmlns="http://www.w3.org/2000/svg" viewBox="350 350 650 400" width="auto" height="auto" style="padding:0"
    version="1.1" transform="matrix(1,-1.2246467991473532e-16,1.2246467991473532e-16,1,0,0)">
    <g clip-path="url(#__lottie_element_398)">
        <g opacity="1" style="display: block;">
            <g opacity="1">
                <path stroke-linecap="round" stroke-linejoin="round" fill-opacity="0" stroke="rgb(0,13,255)"
                    stroke-opacity="1" stroke-width="1"
                    d="M414.33 503.61c-1.13 11.15 3.27 21.33 3.27 21.33 -0.86 -3.6 2.92 -18.2 9.53 -26.86 4.82 -6.31 18.57 -12.07 17.54 -26.51 11.23 12.79 25.43 33.46 22.88 53.37 6.4 -12.95 3.17 -27.48 3.17 -27.48 14.8 17.18 22.99 37.52 18.5 57.08 -5 21.78 -22.38 32.77 -44.57 33.91 -0.33 0.02 -0.68 0.04 -1.02 0.05 -19.96 -0.57 -37.48 -13.44 -43.99 -32.31 -6.52 -18.88 1.05 -37.06 14.69 -52.58zm114.88 0c-1.12 11.15 3.28 21.33 3.28 21.33 -0.87 -3.6 2.91 -18.2 9.53 -26.86 4.82 -6.31 18.56 -12.07 17.54 -26.51 11.23 12.79 25.42 33.46 22.88 53.37 6.39 -12.95 3.17 -27.48 3.17 -27.48 14.8 17.18 22.99 37.52 18.5 57.08 -5.01 21.78 -22.38 32.77 -44.57 33.91 -0.34 0.02 -0.68 0.04 -1.02 0.05 -19.96 -0.57 -37.48 -13.44 -43.99 -32.31 -6.52 -18.88 1.05 -37.06 14.68 -52.58zm114.89 0c-1.12 11.15 3.28 21.33 3.28 21.33 -0.87 -3.6 2.91 -18.2 9.52 -26.86 4.83 -6.31 18.57 -12.07 17.54 -26.51 11.24 12.79 25.43 33.46 22.88 53.37 6.4 -12.95 3.18 -27.48 3.18 -27.48 14.79 17.18 22.99 37.52 18.49 57.08 -5 21.78 -22.38 32.77 -44.56 33.91 -0.34 0.02 -0.68 0.04 -1.02 0.05 -19.96 -0.57 -37.48 -13.44 -44 -32.31 -6.51 -18.88 1.05 -37.06 14.69 -52.58zm114.89 0c-1.13 11.15 3.28 21.33 3.28 21.33 -0.87 -3.6 2.91 -18.2 9.52 -26.86 4.83 -6.31 18.57 -12.07 17.54 -26.51 11.23 12.79 25.43 33.46 22.88 53.37 6.4 -12.95 3.17 -27.48 3.17 -27.48 14.8 17.18 23 37.52 18.5 57.08 -5 21.78 -22.38 32.77 -44.56 33.91 -0.34 0.02 -0.68 0.04 -1.02 0.05 -19.96 -0.57 -37.48 -13.44 -44 -32.31 -6.52 -18.88 1.05 -37.06 14.69 -52.58zm114.89 0c-1.13 11.15 3.27 21.33 3.27 21.33 -0.86 -3.6 2.92 -18.2 9.53 -26.86 4.82 -6.31 18.57 -12.07 17.54 -26.51 11.23 12.79 25.43 33.46 22.88 53.37 6.4 -12.95 3.17 -27.48 3.17 -27.48 14.8 17.18 22.99 37.52 18.5 57.08 -5 21.78 -22.38 32.77 -44.57 33.91 -0.33 0.02 -0.68 0.04 -1.02 0.05 -19.96 -0.57 -37.48 -13.44 -43.99 -32.31 -6.52 -18.88 1.05 -37.06 14.69 -52.58z">
                </path>
                <g opacity="1">
                    <path fill="rgb(144, 238, 144)" fill-opacity="1"
                        d="M414.33 503.61c-1.13 11.15 3.27 21.33 3.27 21.33 -0.86 -3.6 2.92 -18.2 9.53 -26.86 4.82 -6.31 18.57 -12.07 17.54 -26.51 11.23 12.79 25.43 33.46 22.88 53.37 6.4 -12.95 3.17 -27.48 3.17 -27.48 14.8 17.18 22.99 37.52 18.5 57.08 -5 21.78 -22.38 32.77 -44.57 33.91 -0.33 0.02 -0.68 0.04 -1.02 0.05 -19.96 -0.57 -37.48 -13.44 -43.99 -32.31 -6.52 -18.88 1.05 -37.06 14.69 -52.58z">
                    </path>
                    <g opacity="1" transform="translate(443.858 530.037)"></g>
                </g>
                <g opacity="1">
                    <path fill="#00b000" fill-opacity="1"
                        d="M529.21 503.61c-1.12 11.15 3.28 21.33 3.28 21.33 -0.87 -3.6 2.91 -18.2 9.53 -26.86 4.82 -6.31 18.56 -12.07 17.54 -26.51 11.23 12.79 25.42 33.46 22.88 53.37 6.39 -12.95 3.17 -27.48 3.17 -27.48 14.8 17.18 22.99 37.52 18.5 57.08 -5.01 21.78 -22.38 32.77 -44.57 33.91 -0.34 0.02 -0.68 0.04 -1.02 0.05 -19.96 -0.57 -37.48 -13.44 -43.99 -32.31 -6.52 -18.88 1.05 -37.06 14.68 -52.58z">
                    </path>
                    <g opacity="1" transform="translate(558.746 530.037)"></g>
                </g>
                <g opacity="1">
                    <path fill="rgb(255, 255, 0)" fill-opacity="1"
                        d="M644.1 503.61c-1.12 11.15 3.28 21.33 3.28 21.33 -0.87 -3.6 2.91 -18.2 9.52 -26.86 4.83 -6.31 18.57 -12.07 17.54 -26.51 11.24 12.79 25.43 33.46 22.88 53.37 6.4 -12.95 3.18 -27.48 3.18 -27.48 14.79 17.18 22.99 37.52 18.49 57.08 -5 21.78 -22.38 32.77 -44.56 33.91 -0.34 0.02 -0.68 0.04 -1.02 0.05 -19.96 -0.57 -37.48 -13.44 -44 -32.31 -6.51 -18.88 1.05 -37.06 14.69 -52.58z">
                    </path>
                    <g opacity="1" transform="translate(673.633 530.037)"></g>
                </g>
                <g opacity="1">
                    <path fill="rgb(0,13,255)" fill-opacity="0"
                        d="M758.99 503.61c-1.13 11.15 3.28 21.33 3.28 21.33 -0.87 -3.6 2.91 -18.2 9.52 -26.86 4.83 -6.31 18.57 -12.07 17.54 -26.51 11.23 12.79 25.43 33.46 22.88 53.37 6.4 -12.95 3.17 -27.48 3.17 -27.48 14.8 17.18 23 37.52 18.5 57.08 -5 21.78 -22.38 32.77 -44.56 33.91 -0.34 0.02 -0.68 0.04 -1.02 0.05 -19.96 -0.57 -37.48 -13.44 -44 -32.31 -6.52 -18.88 1.05 -37.06 14.69 -52.58z">
                    </path>
                    <g opacity="1" transform="translate(788.521 530.037)"></g>
                </g>
                <g opacity="1">
                    <path fill="rgb(0,13,255)" fill-opacity="0"
                        d="M873.88 503.61c-1.13 11.15 3.27 21.33 3.27 21.33 -0.86 -3.6 2.92 -18.2 9.53 -26.86 4.82 -6.31 18.57 -12.07 17.54 -26.51 11.23 12.79 25.43 33.46 22.88 53.37 6.4 -12.95 3.17 -27.48 3.17 -27.48 14.8 17.18 22.99 37.52 18.5 57.08 -5 21.78 -22.38 32.77 -44.57 33.91 -0.33 0.02 -0.68 0.04 -1.02 0.05 -19.96 -0.57 -37.48 -13.44 -43.99 -32.31 -6.52 -18.88 1.05 -37.06 14.69 -52.58z">
                    </path>
                    <g opacity="1" transform="translate(903.408 530.037)"></g>
                </g>
            </g>
        </g>
        <g transform="matrix(.5 0 0 .5 95.212 270)" opacity="1" style="display: block;">
            <g opacity="1">
                <path stroke-linecap="round" stroke-linejoin="round" fill-opacity="0" stroke="#000000"
                    stroke-opacity="1" stroke-width="12" d="M525.2 950V218.79m29.6 -88.79v731.21"></path>
                <g opacity="1" transform="translate(525.202 584.395)"></g>
                <g opacity="1" transform="translate(554.798 495.605)"></g>
            </g>
        </g>
    </g>
</svg>