<svg width="32" height="32" viewBox="0 0 32 32" fill="none" xmlns="http://www.w3.org/2000/svg">
<path d="M9.25 11.8126H6.4375C4.68734 11.8126 3.81225 11.8126 3.14378 12.1532C2.55577 12.4528 2.0777 12.9309 1.77811 13.5189C1.4375 14.1873 1.4375 15.0625 1.4375 16.8127V25.5627C1.4375 27.3128 1.4375 28.1878 1.77811 28.8563C2.0777 29.4444 2.55577 29.9223 3.14378 30.222C3.81225 30.5627 4.68733 30.5627 6.4375 30.5627H24.5422C26.2923 30.5627 27.1673 30.5627 27.8359 30.222C28.4239 29.9223 28.9019 29.4444 29.2016 28.8563C29.5422 28.1878 29.5422 27.3128 29.5422 25.5627V16.5002M6.125 21.1877H6.14063M12.375 21.1875H12.3906M14.7483 17.8978L16.8027 17.4917C17.9113 17.2727 18.4655 17.1631 18.9823 16.9614C19.4411 16.7823 19.877 16.5497 20.2813 16.2681C20.7366 15.9511 21.1359 15.5516 21.935 14.7525L29.9794 6.70814C31.0533 5.63431 31.0533 3.89328 29.9794 2.81944C28.9056 1.74561 27.1645 1.74561 26.0908 2.81945L17.9088 11.0014C17.1602 11.7501 16.7858 12.1244 16.4834 12.5488C16.215 12.9255 15.9892 13.3308 15.8103 13.7573C15.6088 14.2378 15.4877 14.7533 15.2453 15.7839L14.7483 17.8978Z" stroke="black" stroke-width="2.29333" stroke-linecap="round" stroke-linejoin="round"/>
</svg>
