<?xml version="1.0" standalone="no"?>
<!DOCTYPE svg PUBLIC "-//W3C//DTD SVG 20010904//EN"
 "http://www.w3.org/TR/2001/REC-SVG-20010904/DTD/svg10.dtd">
<svg version="1.0" xmlns="http://www.w3.org/2000/svg"
 width="512.000000pt" height="512.000000pt" viewBox="0 0 512.000000 512.000000"
 preserveAspectRatio="xMidYMid meet">
<g transform="translate(0.000000,512.000000) scale(0.100000,-0.100000)"
fill="#3040f4" stroke="none">
<path d="M1773 4420 c-28 -5 -88 -23 -132 -39 -240 -88 -423 -285 -496 -534
l-16 -57 -266 0 c-297 0 -314 -3 -359 -69 -33 -49 -34 -134 -2 -181 52 -75 48
-74 355 -80 l276 -5 17 -60 c74 -259 277 -460 545 -541 79 -23 107 -27 225
-27 118 0 146 4 225 27 282 85 488 300 556 581 26 109 26 284 0 387 -40 155
-117 285 -235 395 -85 80 -178 134 -296 174 -82 27 -111 32 -220 35 -69 2
-148 -1 -177 -6z m260 -335 c161 -42 283 -156 337 -316 18 -53 21 -81 18 -164
-3 -91 -7 -107 -41 -177 -58 -120 -144 -199 -272 -248 -85 -33 -225 -33 -310
0 -127 49 -213 127 -272 247 -38 76 -38 78 -38 197 0 119 1 122 37 199 100
209 326 318 541 262z"/>
<path d="M3122 3773 c-53 -26 -82 -77 -82 -144 0 -62 22 -105 73 -143 28 -21
34 -21 727 -21 693 0 699 0 727 21 50 37 73 81 73 142 0 68 -27 115 -81 142
-37 19 -61 20 -721 20 -612 0 -686 -2 -716 -17z"/>
<path d="M3075 2289 c-168 -25 -357 -125 -469 -249 -47 -52 -116 -160 -145
-225 -62 -140 -80 -367 -42 -517 40 -155 117 -285 235 -395 84 -79 177 -134
296 -175 91 -31 101 -32 250 -32 149 0 159 1 250 32 261 90 449 286 525 545
l16 57 265 0 c244 0 268 2 303 20 107 54 111 208 8 284 -27 20 -44 21 -304 26
l-276 5 -17 60 c-24 83 -45 129 -97 210 -169 261 -482 400 -798 354z m282
-350 c127 -47 216 -130 277 -259 26 -56 31 -79 34 -165 3 -83 0 -111 -18 -164
-139 -412 -691 -446 -878 -54 -36 77 -37 80 -37 198 0 114 2 124 31 185 42 87
100 159 165 202 51 33 144 72 199 82 50 9 170 -4 227 -25z"/>
<path d="M575 1646 c-16 -7 -43 -28 -60 -45 -25 -27 -30 -41 -33 -96 -5 -78
19 -125 79 -155 37 -19 62 -20 719 -20 657 0 682 1 719 20 107 54 111 208 8
284 -28 21 -36 21 -715 23 -559 2 -693 0 -717 -11z"/>
</g>
</svg>
