<svg xmlns="http://www.w3.org/2000/svg" width="321" height="325" viewBox="0 0 321 325" fill="none">
<g clip-path="url(#clip0_143_3)">
<path d="M139.633 232.927C136.027 232.927 132.688 230.871 131.049 227.555L104.983 174.826L90.4744 197.432C88.7026 200.192 85.6725 201.857 82.4218 201.857H9.60367C4.29964 201.857 0 197.504 0 192.133C0 186.763 4.29964 182.41 9.60367 182.41H77.2099L98.0147 149.994C99.8912 147.072 103.176 145.398 106.606 145.584C110.044 145.78 113.114 147.824 114.655 150.94L136.838 195.816L159.363 109.334C160.403 105.342 163.82 102.449 167.886 102.121C171.945 101.792 175.778 104.1 177.43 107.874L193.876 145.456L207.719 123.732C209.476 120.976 212.485 119.302 215.725 119.279C219.01 119.246 221.995 120.89 223.788 123.622L238.186 145.568H311.397C316.701 145.568 321.001 149.921 321.001 155.291C321.001 160.661 316.701 165.014 311.397 165.014H233.035C229.818 165.014 226.815 163.384 225.035 160.671L215.906 146.755L200.372 171.133C198.459 174.136 195.07 175.836 191.554 175.556C188.036 175.278 184.952 173.068 183.522 169.802L170.956 141.087L148.923 225.683C147.904 229.594 144.599 232.459 140.626 232.875C140.293 232.909 139.962 232.927 139.633 232.927Z" fill="#2D527C"/>
<path d="M155.406 303.486C154.01 303.486 152.614 303.179 151.321 302.562C105.511 280.761 59.5254 240.51 31.3094 197.515C29.3502 194.531 29.1715 190.697 30.8448 187.539C32.5169 184.381 35.7695 182.411 39.3081 182.411H77.2099L98.0147 149.994C99.8905 147.072 103.173 145.389 106.606 145.584C110.044 145.78 113.114 147.824 114.655 150.94L136.838 195.816L159.363 109.334C160.403 105.342 163.82 102.449 167.885 102.121C171.945 101.792 175.778 104.1 177.43 107.874L193.876 145.456L207.719 123.732C209.476 120.976 212.485 119.302 215.725 119.279C215.746 119.279 215.768 119.279 215.789 119.279C219.004 119.279 222.008 120.909 223.789 123.623L241.036 149.912C243.971 154.386 242.768 160.42 238.351 163.391C233.931 166.362 227.971 165.144 225.037 160.673L215.906 146.756L200.374 171.135C198.459 174.137 195.066 175.837 191.555 175.558C188.037 175.28 184.953 173.069 183.523 169.802L170.957 141.088L148.924 225.683C147.905 229.595 144.6 232.459 140.627 232.875C136.646 233.288 132.838 231.173 131.05 227.556L104.985 174.827L90.4756 197.433C88.7038 200.192 85.6738 201.858 82.423 201.858H58.121C83.549 234.649 119.908 265.126 155.407 282.965C188.419 266.372 222.742 238.548 247.976 207.796C251.366 203.665 257.419 203.098 261.5 206.53C265.579 209.961 266.139 216.091 262.75 220.222C234.762 254.332 196.161 285.112 159.492 302.563C158.198 303.179 156.801 303.486 155.406 303.486Z" fill="#2D527C"/>
<path d="M106.067 155.293L139.637 223.204L168.649 111.814L192.302 165.864L215.789 129.003L233.036 155.293H290.524C292.882 148.933 294.737 142.589 296.005 136.311C297.312 129.825 298.021 123.375 298.021 117.063C298.021 69.6744 260.596 31.2381 214.422 31.2381C191.394 31.2381 170.544 40.8116 155.405 56.2758C140.268 40.811 119.418 31.2381 96.389 31.2381C50.2165 31.2381 12.7899 69.6744 12.7899 117.063C12.7899 123.375 13.4983 129.825 14.8055 136.311C18.5334 154.769 27.2631 173.782 39.3068 192.135H82.4205L106.067 155.293Z" fill="#CEE8FA"/>
<path d="M139.633 232.927C136.027 232.927 132.688 230.871 131.049 227.557L104.983 174.827L90.4743 197.434C88.7026 200.193 85.6725 201.859 82.4218 201.859H39.3081C36.0918 201.859 33.0887 200.229 31.3094 197.516C17.944 177.152 9.22749 157.215 5.39806 138.261C3.93162 130.978 3.18805 123.847 3.18805 117.063C3.18805 64.3779 44.9983 21.5154 96.3903 21.5154C118.141 21.5154 138.778 29.1205 155.407 43.1044C172.035 29.1205 192.672 21.5154 214.423 21.5154C265.815 21.5154 307.625 64.3779 307.625 117.063C307.625 123.85 306.881 130.98 305.416 138.256C304.078 144.879 302.093 151.76 299.516 158.711C298.11 162.504 294.526 165.016 290.525 165.016H233.037C229.82 165.016 226.817 163.386 225.037 160.673L215.906 146.757L200.373 171.135C198.46 174.138 195.071 175.838 191.555 175.558C188.036 175.28 184.952 173.07 183.522 169.803L170.956 141.089L148.923 225.684C147.905 229.595 144.6 232.46 140.626 232.876C140.293 232.909 139.962 232.927 139.633 232.927ZM106.066 145.57C106.245 145.57 106.425 145.575 106.606 145.585C110.044 145.781 113.114 147.825 114.655 150.942L136.838 195.818L159.363 109.335C160.403 105.343 163.82 102.451 167.886 102.122C171.945 101.793 175.778 104.101 177.43 107.875L193.876 145.457L207.719 123.733C209.476 120.977 212.485 119.303 215.725 119.281C219.01 119.248 221.997 120.892 223.788 123.623L238.186 145.569H283.693C284.89 141.75 285.862 137.999 286.597 134.362C287.805 128.367 288.417 122.545 288.417 117.062C288.417 75.0985 255.224 40.9595 214.423 40.9595C194.752 40.9595 176.215 48.8293 162.228 63.1186C160.425 64.9613 157.97 65.9979 155.407 65.9979C152.845 65.9979 150.39 64.9613 148.586 63.1186C134.599 48.8293 116.062 40.9595 96.3915 40.9595C55.59 40.9595 22.396 75.0985 22.396 117.062C22.396 122.543 23.0085 128.365 24.2179 134.368C27.2831 149.544 34.1113 165.689 44.53 182.411H77.2105L98.0153 149.994C99.7921 147.226 102.828 145.57 106.066 145.57Z" fill="#2D527C"/>
</g>
<defs>
<clipPath id="clip0_143_3">
<rect width="321" height="325" fill="white"/>
</clipPath>
</defs>
</svg>